dummy_motion.mot
version=1
nRows=51
nColumns=11
inDegrees=No
endheader
                time	         pelvis_tilt	           pelvis_tx	           pelvis_ty	       hip_flexion_l	       hip_flexion_r	        knee_angle_l	        knee_angle_r	       ankle_angle_l	       ankle_angle_r	    lumbar_extension	
          5.00100020	          0.00000000	          0.00000000	          0.00000000	         -0.17018184	          0.22334890	         -0.08234183	         -0.27999657	         -0.22353420	         -0.37817777	          0.12699054	
          5.00300060	          0.00000000	          0.00000000	          0.00000000	          0.75519692	          0.48992827	         -0.82503045	         -0.80391427	         -0.06586368	          0.09042520	          0.07434854	
          5.00500100	          0.00000000	          0.00000000	          0.00000000	          0.12614501	         -0.22943816	         -0.58512854	         -0.13270360	          0.34895445	         -0.24292309	          0.45578429	
          5.00700140	          0.00000000	          0.00000000	          0.00000000	          0.47370757	         -0.61610687	         -0.37738828	         -0.71016367	         -0.10074366	          0.50736802	          0.03634373	
          5.00900180	          0.00000000	          0.00000000	          0.00000000	          0.57912807	          0.38324917	         -0.50847590	         -0.05376924	          0.21022943	         -0.49523184	          0.38043692	
          5.01100220	          0.00000000	          0.00000000	          0.00000000	         -0.59681128	         -0.78893676	         -0.73961013	         -1.15487200	         -0.38282935	          0.07267439	          0.30704476	
          5.01300260	          0.00000000	          0.00000000	          0.00000000	          0.68245264	          0.00603387	         -1.24857004	         -1.40617439	         -0.50417857	         -0.32122471	          0.29216080	
          5.01500300	          0.00000000	          0.00000000	          0.00000000	         -0.22988496	          0.76104251	         -0.14958289	         -1.42512661	          0.43879965	          0.36327506	         -0.17765173	
          5.01700340	          0.00000000	          0.00000000	          0.00000000	          0.48790794	          0.56447195	         -0.90200778	         -0.54299074	          0.47394703	         -0.22445164	         -0.00465841	
          5.01900380	          0.00000000	          0.00000000	          0.00000000	         -0.52082533	          0.56908333	         -1.42482582	         -0.85729605	         -0.14732918	          0.50411628	         -0.30334285	
          5.02100420	          0.00000000	          0.00000000	          0.00000000	          0.17065213	          0.25928700	         -0.97175684	         -0.20559408	          0.29984465	          0.41970119	         -0.51135097	
          5.02300460	          0.00000000	          0.00000000	          0.00000000	         -0.07399523	          0.01105328	         -0.74738422	         -0.93418947	          0.32829532	         -0.28479654	         -0.08436624	
          5.02500500	          0.00000000	          0.00000000	          0.00000000	          0.40841281	         -0.07164109	         -0.12883092	         -1.11587639	         -0.11092701	         -0.18747173	         -0.20861176	
          5.02700540	          0.00000000	          0.00000000	          0.00000000	         -0.14035055	          0.41550415	         -0.85025757	         -0.53298478	         -0.48068367	          0.29938865	          0.46068406	
          5.02900580	          0.00000000	          0.00000000	          0.00000000	         -0.75138126	         -0.41867542	         -1.50399442	         -0.05292429	          0.03500619	          0.39158296	          0.48492492	
          5.03100620	          0.00000000	          0.00000000	          0.00000000	         -0.38961246	          0.04734072	         -1.48111447	         -1.30196529	         -0.01749609	          0.05496327	         -0.15125966	
          5.03300660	          0.00000000	          0.00000000	          0.00000000	         -0.16730840	          0.55752879	         -0.49951719	         -0.61545919	          0.17579928	         -0.19256332	          0.13871623	
          5.03500700	          0.00000000	          0.00000000	          0.00000000	         -0.22164576	          0.71236357	         -0.10668937	         -0.91971013	         -0.31177631	          0.47270448	         -0.32351345	
          5.03700740	          0.00000000	          0.00000000	          0.00000000	          0.41576376	          0.57218340	         -1.07896228	         -0.11564870	         -0.38696187	          0.08210954	          0.37218286	
          5.03900780	          0.00000000	          0.00000000	          0.00000000	          0.24679359	          0.10577717	         -0.96298423	         -1.25302589	         -0.06879977	          0.49375333	         -0.16233108	
          5.04100820	          0.00000000	          0.00000000	          0.00000000	          0.11887178	         -0.58999344	         -0.90005942	         -1.30623355	          0.06214772	         -0.46603693	          0.40698562	
          5.04300860	          0.00000000	          0.00000000	          0.00000000	          0.55948787	         -0.52353468	         -1.11967611	         -1.04746121	          0.04593963	          0.45212078	         -0.50556756	
          5.04500900	          0.00000000	          0.00000000	          0.00000000	         -0.24343320	          0.73962029	         -0.81645662	         -0.23417296	         -0.50821710	         -0.08632920	         -0.43471924	
          5.04700940	          0.00000000	          0.00000000	          0.00000000	         -0.47868313	          0.15565780	         -0.84562169	         -0.68903560	          0.40855788	          0.40603197	          0.00062203	
          5.04900980	          0.00000000	          0.00000000	          0.00000000	          0.85686163	         -0.66254289	         -1.11495475	         -1.36769323	          0.50745855	          0.32053788	          0.37567356	
          5.05101020	          0.00000000	          0.00000000	          0.00000000	          0.81475773	         -0.68678941	         -0.43815310	         -0.74739834	          0.28490660	         -0.19484860	         -0.23596486	
          5.05301060	          0.00000000	          0.00000000	          0.00000000	          0.84997995	          0.17760170	         -0.57933133	         -0.61857843	          0.01921994	          0.50988183	          0.03539196	
          5.05501100	          0.00000000	          0.00000000	          0.00000000	         -0.71446400	          0.43170763	         -1.48915236	         -1.47213464	         -0.21087755	         -0.08603429	         -0.27045981	
          5.05701140	          0.00000000	          0.00000000	          0.00000000	          0.73121819	          0.62500695	         -0.29697198	         -1.29995386	         -0.03388769	         -0.22249222	          0.43549069	
          5.05901180	          0.00000000	          0.00000000	          0.00000000	          0.46996714	         -0.25310850	         -0.31528210	         -0.37139258	         -0.36716114	         -0.49914285	         -0.37273498	
          5.06101220	          0.00000000	          0.00000000	          0.00000000	         -0.48852762	         -0.21725836	         -1.09198072	         -0.76728314	         -0.04642539	         -0.40734217	          0.50459915	
          5.06301260	          0.00000000	          0.00000000	          0.00000000	          0.58238832	          0.20670957	         -0.40091059	         -0.90523198	          0.47510326	          0.27517092	         -0.17473497	
          5.06501300	          0.00000000	          0.00000000	          0.00000000	          0.15175739	         -0.26754155	         -1.22538285	         -1.19646457	          0.48612339	          0.45614567	          0.41859672	
          5.06701340	          0.00000000	          0.00000000	          0.00000000	          0.22424204	          0.80502014	         -0.86899828	         -0.87166356	          0.35176916	         -0.06974963	         -0.48318057	
          5.06901380	          0.00000000	          0.00000000	          0.00000000	         -0.58347321	          0.59690436	         -0.91333063	         -0.11924553	         -0.41454061	         -0.17277167	          0.25039823	
          5.07101420	          0.00000000	          0.00000000	          0.00000000	         -0.57801860	          0.73885527	         -0.34963706	         -1.53464687	         -0.21441006	          0.21414082	          0.40832292	
          5.07301460	          0.00000000	          0.00000000	          0.00000000	         -0.78276591	          0.52200767	         -1.15021133	         -1.03468039	         -0.37738802	          0.46492452	         -0.19817990	
          5.07501500	          0.00000000	          0.00000000	          0.00000000	         -0.11271419	         -0.15465664	         -0.07621114	         -0.28600098	         -0.25509370	          0.43496040	          0.27096888	
          5.07701540	          0.00000000	          0.00000000	          0.00000000	          0.74183053	          0.15773133	         -1.43858208	         -1.37092622	          0.17335209	          0.00679707	         -0.51051742	
          5.07901580	          0.00000000	          0.00000000	          0.00000000	         -0.60330625	         -0.63179372	         -0.77710526	         -1.20569221	         -0.51526834	         -0.18705760	          0.35616253	
          5.08101620	          0.00000000	          0.00000000	          0.00000000	         -0.07307976	          0.14527052	         -0.57084063	         -0.94283238	          0.08053505	          0.41347484	         -0.42676286	
          5.08301660	          0.00000000	          0.00000000	          0.00000000	         -0.35647003	         -0.21421972	         -1.40064299	         -0.89354824	          0.06284775	          0.34536555	          0.30390562	
          5.08501700	          0.00000000	          0.00000000	          0.00000000	          0.73931087	         -0.76739968	         -1.27617265	         -0.61492741	          0.09231243	         -0.29375548	         -0.05898959	
          5.08701740	          0.00000000	          0.00000000	          0.00000000	         -0.85202267	         -0.62670111	         -0.98718414	         -0.49256871	         -0.11101113	         -0.31068331	          0.05585604	
          5.08901780	          0.00000000	          0.00000000	          0.00000000	         -0.44715653	          0.81516595	         -0.97753342	         -0.04007698	          0.20112071	         -0.26900010	          0.34059137	
          5.09101820	          0.00000000	          0.00000000	          0.00000000	         -0.62384665	         -0.80621250	         -1.32291449	         -0.46139891	         -0.39691980	          0.18981172	         -0.35332798	
          5.09301860	          0.00000000	          0.00000000	          0.00000000	         -0.83581214	          0.11622368	         -1.21710054	         -0.20284368	         -0.39410295	          0.00638703	          0.25367063	
          5.09501900	          0.00000000	          0.00000000	          0.00000000	          0.60409212	         -0.24634009	         -0.99856267	         -1.21686856	         -0.33196490	          0.15701848	         -0.35615144	
          5.09701940	          0.00000000	          0.00000000	          0.00000000	         -0.72964506	          0.21733760	         -0.31704139	         -0.09736332	          0.45666834	         -0.05951001	          0.50497547	
          5.09901980	          0.00000000	          0.00000000	          0.00000000	         -0.59549287	         -0.21618103	         -1.12953703	         -0.76373367	         -0.06996337	          0.29572023	         -0.35676002	
          5.10102020	          0.00000000	          0.00000000	          0.00000000	         -0.49442610	         -0.36334459	         -0.21445057	         -0.18594514	         -0.22955286	         -0.41996914	         -0.33345270	
